# xmcd CD database file
#
# Track frame offsets:
#	150
#	16518
#	42714
#	58841
#	72937
#	94533
#	106236
#	126641
#	139171
#	149683
#	171118
#	183924
#	214069
#
# Disc length: 3221 seconds
#
# Revision: 0
# Processed by: cddbd v1.4PL0 Copyright (c) Steve Scherf et al.
# Submitted via: CDex 1.50beta9
#
DISCID=c30c930d
DTITLE=János Mazura - I let the song ...
DYEAR=1998
DGENRE=Jazz
TTITLE0=Au Privave (Charlie Parker)
TTITLE1=Doxy (Sonny Rollins)
TTITLE2=Elephant In The Livingroom (Tommy Pederson)
TTITLE3=Ma About Him, Sad Without Him, How Can I Be Glad Without Him (Dick Charles)
TTITLE4=I Let The Song Go Out Of My Heart (Duke Ellington)
TTITLE5=Truesome Whosome (Béla Szalóky)
TTITLE6=Scrapple From An Apple (Charlie Parker)
TTITLE7=Satin Doll (Billy Strayhorn)
TTITLE8=Billie's Bounce (Charlie Parker)
TTITLE9=Blues For Louie (But Without Him) (József Róbert Fritz)
TTITLE10=My Little Suede Shoues (Charlie Parker)
TTITLE11=Poor Butterfly (Raymond Hubbel)
TTITLE12=Bye Bye Blackbird (ray Henderson)
EXTD=YEAR: 1998
EXTT0=
EXTT1=
EXTT2=
EXTT3=
EXTT4=
EXTT5=
EXTT6=
EXTT7=
EXTT8=
EXTT9=
EXTT10=
EXTT11=
EXTT12=
PLAYORDER=
